# xmcd
#
# Track frame offsets:
#	150
#	9973
#	19527
#	30209
#	41092
#	53422
#	65121
#	73762
#	83609
#	95360
#	105289
#	114783
#	124724
#	137318
#	148739
#	159313
#	167944
#	181790
#
# Disc length: 2558 seconds
#
# Revision: 4137611187
# Processed by: cddbd v1.5.2PL0 Copyright (c) Steve Scherf et al.
# Submitted via: EZCDAudioConverter 8.5.0.1
#
DISCID=d109fc12
DTITLE=V/A - Los Alamos Grind!
DYEAR=2016
DGENRE=
TTITLE0=Johnny Knight - Rock and Roll Guitar
TTITLE1=Classie Ballou - Classie's Whip
TTITLE2=Eugene Blacknell - Jump Back
TTITLE3=The Blazers - The Grasshopper Twist
TTITLE4=A.C. Jones and The Atomic Aces - Give Me Your Love [Instrumental]
TTITLE5=The Kings - Just A Little Bit Of You
TTITLE6=The Dontels - Soul Nitty Gritty
TTITLE7=J.J. Jones - Aw Shucks
TTITLE8=The Sterlings - Hey Boy
TTITLE9=L. Hollis and The Mackadoos - Bui Bui
TTITLE10=Dino and The Deltones - Slap Stick
TTITLE11=Royal Jesters - Staletto 135
TTITLE12=Cal Valentine - The Boogie Twist (Part 1)
TTITLE13=Lou Ragland and The Bandmasters - Party At Lester's
TTITLE14=The Joy Rockers - The Gauster Bop
TTITLE15=Fabulous Rhythm Makers - Mini, Mini Afro Twist
TTITLE16=Soul Heirs - Hot Links
TTITLE17=Johnny K. Killens and The Dynamites - Frenchy The Tickler
EXTD=
EXTT0=
EXTT1=
EXTT2=
EXTT3=
EXTT4=
EXTT5=
EXTT6=
EXTT7=
EXTT8=
EXTT9=
EXTT10=
EXTT11=
EXTT12=
EXTT13=
EXTT14=
EXTT15=
EXTT16=
EXTT17=
PLAYORDER=
